<svg width="92" height="21" viewBox="0 0 92 21" fill="none" xmlns="http://www.w3.org/2000/svg">
<g clip-path="url(#clip0_354_3014)">
<path d="M81.4978 20.9306C87.2982 20.9306 92.0004 16.2451 92.0004 10.4653C92.0004 4.68548 87.2982 0 81.4978 0C75.6973 0 70.9951 4.68548 70.9951 10.4653C70.9951 16.2451 75.6973 20.9306 81.4978 20.9306Z" fill="white"/>
<path d="M83.7205 4.00317L74.8226 9.12136C73.787 9.71799 73.787 11.2096 74.8226 11.8062L83.7205 16.9244C84.7579 17.5227 86.0563 16.777 86.0563 15.582V9.71799C86.0563 9.98855 85.8353 10.2088 85.5637 10.2088H84.6534C84.3819 10.2088 84.1608 9.98855 84.1608 9.71799V13.4001C84.1608 14.0852 83.4176 14.5136 82.8223 14.1719L77.7172 11.2356C77.1219 10.8939 77.1219 10.0371 77.7172 9.69544L82.8223 6.75912C83.4176 6.41744 84.1608 6.84584 84.1608 7.52919V7.79975C84.1608 8.01482 84.3366 8.18652 84.549 8.18652H85.6647C85.8788 8.18652 86.0528 8.01308 86.0528 7.79975V5.34733C86.0528 4.15406 84.7561 3.40828 83.717 4.00491L83.7205 4.00317Z" fill="#FF6600"/>
<path d="M86.0561 6.55425V7.79954C86.0561 8.01461 85.8803 8.18631 85.6679 8.18631H84.5522C84.3381 8.18631 84.1641 8.01287 84.1641 7.79954V6.55425C84.1641 6.33919 84.3399 6.16748 84.5522 6.16748H85.6679C85.882 6.16748 86.0561 6.34092 86.0561 6.55425Z" fill="#FF6600"/>
<path d="M86.0561 7.47374V7.79981C86.0561 8.01487 85.8803 8.18658 85.6679 8.18658H84.5522C84.3381 8.18658 84.1641 8.01314 84.1641 7.79981V7.47374C84.1641 7.20318 84.3851 6.98291 84.6566 6.98291H85.567C85.8385 6.98291 86.0595 7.20318 86.0595 7.47374H86.0561Z" fill="#FF6600"/>
<path d="M82.0252 11.4092H88.1921C88.6102 11.4092 88.9492 11.0714 88.9492 10.6547V10.2766C88.9492 9.85995 88.6102 9.52216 88.1921 9.52216H82.0252C81.607 9.52216 81.268 9.85995 81.268 10.2766V10.6547C81.268 11.0714 81.607 11.4092 82.0252 11.4092Z" fill="#FF6600"/>
<path d="M57.6533 10.058C59.7263 10.058 61.7994 10.0563 63.8707 10.0598C64.224 10.0598 64.5338 9.93837 64.8193 9.75279C65.3502 9.40938 65.6687 8.92028 65.7679 8.2959C65.942 7.19456 65.1831 6.12444 64.083 5.92325C63.9525 5.89897 63.8184 5.89377 63.6844 5.88336C63.0683 5.83653 62.4504 5.87122 61.8342 5.86428C61.2145 5.85735 60.5949 5.86428 59.9753 5.86428C59.9631 5.86428 59.9526 5.86428 59.9317 5.86428C59.9074 5.42548 60.017 5.02137 60.2555 4.65715C60.621 4.09694 61.1397 3.77261 61.8063 3.69283C61.9386 3.67722 62.0726 3.68762 62.2067 3.68589C62.3198 3.68589 62.4329 3.68762 62.5478 3.68762C62.7967 3.68762 63.0456 3.68589 63.2945 3.68762C63.5539 3.69109 63.815 3.68762 64.0726 3.70844C64.6713 3.75353 65.237 3.92524 65.7592 4.22008C66.8958 4.86181 67.6129 5.82092 67.9001 7.09223C67.9471 7.29863 67.9593 7.51369 67.9871 7.72355C67.9889 7.74263 67.9924 7.76171 67.9958 7.78252V8.19184C67.9924 8.20918 67.9889 8.22652 67.9871 8.2456C67.9645 8.43118 67.9523 8.62023 67.9158 8.80408C67.6721 10.0095 67.0263 10.9478 65.9924 11.6173C65.385 12.0092 64.7148 12.2208 63.9942 12.2763C63.9821 12.2763 63.9699 12.2902 63.9577 12.2971H57.6533C57.6533 11.5514 57.6533 10.8056 57.6533 10.0598V10.058Z" fill="#222222"/>
<path d="M51.7261 4.51465C51.8636 4.51465 51.9994 4.51465 52.1369 4.51465C52.1526 4.51812 52.17 4.52159 52.1857 4.52332C52.4415 4.5372 52.6939 4.57535 52.9428 4.63432C54.8679 5.09047 56.2447 6.82659 56.2464 8.79859C56.2464 9.1975 56.2464 9.59815 56.2464 9.99706V10.0578H57.9905V12.2743H56.2464V17.4966H54.022V12.5848C54.022 12.5848 54.0115 12.583 54.008 12.5848C53.9854 12.5952 53.9645 12.6073 53.9419 12.6195C53.0211 13.0947 52.0481 13.2352 51.0369 13.0184C49.8289 12.7582 48.8994 12.0905 48.2467 11.0464C47.9125 10.5122 47.7176 9.92768 47.648 9.30157C47.6375 9.20791 47.6288 9.11425 47.6201 9.02059C47.6201 8.88358 47.6201 8.7483 47.6201 8.61128C47.6236 8.5922 47.6271 8.57312 47.6288 8.55404C47.6567 8.34418 47.6706 8.12912 47.7159 7.92273C47.9735 6.76242 48.6053 5.8536 49.6026 5.20147C50.1631 4.83551 50.781 4.62045 51.4459 4.54587C51.5399 4.53546 51.6339 4.52679 51.7296 4.51812L51.7261 4.51465ZM51.9315 10.918C52.0081 10.9128 52.0847 10.9128 52.1613 10.9024C52.8732 10.8122 53.411 10.4567 53.7713 9.83923C53.9402 9.54958 54.0376 9.23566 54.022 8.89225C54.0185 8.82808 54.0394 8.7639 54.0376 8.69973C54.0359 8.62168 54.0237 8.54364 54.0115 8.46732C53.8253 7.29834 52.6626 6.50399 51.5016 6.75375C50.3563 6.9983 49.6357 8.09096 49.8637 9.23566C50.0569 10.2052 50.9359 10.9198 51.9315 10.918V10.918Z" fill="#222222"/>
<path d="M42.6829 13.3169H42.2721C42.2564 13.3134 42.239 13.3099 42.2234 13.3082C42.0267 13.2839 41.8283 13.2701 41.6333 13.2319C40.0668 12.9318 38.7666 11.7386 38.3314 10.2037C38.328 10.1898 38.3262 10.1759 38.3227 10.1586H38.3837C39.1391 10.1586 39.8927 10.1586 40.6481 10.1586C40.6917 10.1586 40.7143 10.1707 40.7404 10.2071C41.2678 10.92 41.9745 11.2269 42.85 11.083C44.0196 10.8905 44.782 9.75097 44.5453 8.5924C44.3295 7.53442 43.3199 6.80078 42.246 6.92739C41.5933 7.0037 41.0833 7.32283 40.7143 7.86396C40.6934 7.89344 40.6725 7.90385 40.6377 7.90385C39.8805 7.90385 39.1251 7.90385 38.368 7.90385H38.3105C38.3192 7.87436 38.3245 7.85182 38.3314 7.82927C38.6378 6.80078 39.2418 5.99255 40.1416 5.40459C40.7038 5.03864 41.3217 4.82184 41.9901 4.74552C42.0841 4.73512 42.1799 4.72645 42.2738 4.71777C42.4113 4.71777 42.5471 4.71777 42.6846 4.71777C42.702 4.72124 42.7212 4.72471 42.7386 4.72645C43.0153 4.74032 43.2903 4.78195 43.5584 4.85479C44.6828 5.15657 45.5531 5.80177 46.1675 6.7869C46.5 7.32109 46.6967 7.90558 46.7663 8.5317C46.7767 8.62535 46.7854 8.71901 46.7941 8.81267V9.22199C46.7906 9.24106 46.7872 9.26014 46.7854 9.28095C46.7576 9.49082 46.7436 9.70588 46.6984 9.91227C46.4495 11.0362 45.8472 11.9259 44.8952 12.578C44.3138 12.9769 43.668 13.2093 42.9683 13.2891C42.8743 13.2995 42.7804 13.3082 42.6846 13.3169H42.6829Z" fill="#222222"/>
<path d="M37.4837 8.60949V17.4965H35.2593V12.5847C35.2593 12.5847 35.2488 12.583 35.2453 12.5847C35.2227 12.5951 35.2018 12.6073 35.1792 12.6194C34.2584 13.0946 33.2855 13.2351 32.2742 13.0183C31.0662 12.7582 30.1367 12.0904 29.484 11.0463C29.1498 10.5121 28.9549 9.92763 28.8853 9.30152C28.8748 9.20786 28.8661 9.1142 28.8574 9.02054C28.8574 8.88353 28.8574 8.74824 28.8574 8.61123C28.8609 8.59215 28.8644 8.57307 28.8661 8.55399C28.894 8.34413 28.9079 8.12907 28.9532 7.92267C29.2108 6.76237 29.8426 5.85355 30.8399 5.20142C31.4004 4.83546 32.0183 4.6204 32.6832 4.54582C32.7772 4.53541 32.8712 4.52674 32.9669 4.51807C33.1044 4.51807 33.2402 4.51807 33.3777 4.51807C33.3951 4.52154 33.4143 4.525 33.4317 4.52674C33.7084 4.54061 33.9834 4.58224 34.2515 4.65508C35.3811 4.9586 36.2549 5.60726 36.8676 6.59933C37.1965 7.13006 37.3897 7.71108 37.4594 8.33026C37.4698 8.42391 37.4785 8.51757 37.4872 8.61123L37.4837 8.60949ZM33.1688 10.9145C33.2054 10.9145 33.2419 10.9145 33.2785 10.9145C33.3185 10.9145 33.3586 10.911 33.3986 10.9058C34.1314 10.8104 34.6797 10.4393 35.0347 9.79408C35.1862 9.51831 35.2732 9.22173 35.2593 8.90087C35.2558 8.83496 35.2767 8.76906 35.2749 8.70488C35.2732 8.62684 35.261 8.54879 35.2488 8.47248C35.0608 7.30176 33.9016 6.50915 32.7389 6.7589C31.5936 7.00345 30.873 8.09438 31.101 9.23908C31.2925 10.2086 32.1732 10.9232 33.1688 10.9162V10.9145Z" fill="#222222"/>
<path d="M15.2547 11.1351C18.2398 11.1351 21.2266 11.1351 24.2117 11.1368C24.2604 11.1368 24.2935 11.1091 24.3353 11.1038C25.2021 11.005 25.907 10.4084 26.142 9.57412C26.4727 8.3982 25.7121 7.17546 24.5058 6.94998C24.3457 6.9205 24.1821 6.9153 24.0115 6.89795V4.71436C24.1125 4.71436 24.2117 4.71436 24.3126 4.71436C24.33 4.71782 24.3492 4.72129 24.3666 4.72303C24.6434 4.7369 24.9184 4.77853 25.1864 4.85137C26.2778 5.14275 27.1341 5.76193 27.7468 6.70717C28.1071 7.26044 28.3195 7.87095 28.3926 8.52828C28.403 8.61847 28.4117 8.71039 28.4204 8.80058V9.23071C28.4169 9.24632 28.4134 9.26366 28.4117 9.27927C28.3839 9.48566 28.3699 9.69379 28.3282 9.89671C28.128 10.8472 27.6563 11.645 26.9165 12.2763C26.095 12.9787 25.1342 13.3187 24.0516 13.3152C24.0341 13.3152 24.0185 13.3221 24.0011 13.3256H15.2529V11.1385L15.2547 11.1351Z" fill="#222222"/>
<path d="M7.13086 11.1351C10.116 11.1351 13.1028 11.1351 16.0879 11.1368C16.1366 11.1368 16.1697 11.1091 16.2115 11.1038C17.0783 11.005 17.7832 10.4084 18.0182 9.57412C18.3489 8.3982 17.5883 7.17546 16.382 6.94998C16.2219 6.9205 16.0583 6.9153 15.8877 6.89795V4.71436C15.9887 4.71436 16.0879 4.71436 16.1888 4.71436C16.2062 4.71782 16.2254 4.72129 16.2428 4.72303C16.5195 4.7369 16.7945 4.77853 17.0626 4.85137C18.1539 5.14275 19.0103 5.76193 19.623 6.70717C19.9833 7.26044 20.1956 7.87095 20.2687 8.52828C20.2792 8.61847 20.2879 8.71039 20.2966 8.80058V9.23071C20.2931 9.24632 20.2896 9.26366 20.2879 9.27927C20.26 9.48566 20.2461 9.69379 20.2043 9.89671C20.0042 10.8472 19.5325 11.645 18.7927 12.2763C17.9712 12.9787 17.0104 13.3187 15.9277 13.3152C15.9103 13.3152 15.8947 13.3221 15.8773 13.3256H7.13086V11.1385V11.1351Z" fill="#222222"/>
<path d="M13.1692 11.1351C10.1841 11.1351 7.19729 11.1351 4.2122 11.1368C4.16346 11.1368 4.13039 11.1091 4.08862 11.1038C3.22181 11.005 2.51688 10.4084 2.2819 9.57412C1.95119 8.3982 2.71182 7.17546 3.91804 6.94998C4.07817 6.9205 4.24179 6.9153 4.41237 6.89795C4.41237 6.17645 4.41237 5.44627 4.41237 4.71436C4.31141 4.71436 4.2122 4.71436 4.11125 4.71436C4.09384 4.71782 4.07469 4.72129 4.05729 4.72303C3.78054 4.7369 3.50552 4.77853 3.23748 4.85137C2.14613 5.14275 1.28977 5.76193 0.677085 6.70717C0.316785 7.26044 0.104435 7.87095 0.0313304 8.52828C0.0191464 8.61673 0.00870289 8.70866 0 8.79884V9.22897C0.00348116 9.24458 0.00696231 9.26193 0.00870289 9.27754C0.0365521 9.48393 0.0504768 9.69206 0.0922506 9.89498C0.292417 10.8454 0.764114 11.6432 1.50386 12.2746C2.32541 12.977 3.28621 13.3169 4.36885 13.3135C4.38626 13.3135 4.40192 13.3204 4.41933 13.3239C7.3348 13.3239 10.252 13.3239 13.1675 13.3239C13.1675 12.5954 13.1675 11.8652 13.1675 11.1368L13.1692 11.1351Z" fill="#222222"/>
<path d="M24.4708 15.4622V15.6911C24.4673 15.7015 24.4638 15.7137 24.4621 15.7241C24.3838 16.2478 24.0966 16.6051 23.5988 16.789C23.503 16.8237 23.3986 16.8375 23.2994 16.8601H23.0696C23.0592 16.8566 23.047 16.8531 23.0366 16.8514C22.5074 16.7924 22.0636 16.4057 21.9365 15.8923C21.9209 15.8264 21.9104 15.7587 21.8965 15.6928C21.8965 15.6165 21.8965 15.5402 21.8965 15.4639C21.9 15.4535 21.9034 15.4414 21.9052 15.4309C21.9835 14.9072 22.2707 14.5499 22.7685 14.366C22.8642 14.3313 22.9687 14.3175 23.0679 14.2949C23.1445 14.2949 23.2211 14.2949 23.2977 14.2949C23.3081 14.2984 23.3185 14.3019 23.3307 14.3036C23.8459 14.3626 24.2811 14.7285 24.4203 15.2246C24.4412 15.3026 24.4534 15.3824 24.4708 15.4622V15.4622Z" fill="white"/>
<path d="M27.4962 15.4622V15.6911C27.4927 15.7015 27.4892 15.7137 27.4875 15.7241C27.4092 16.2478 27.122 16.6051 26.6242 16.789C26.5284 16.8237 26.424 16.8375 26.3248 16.8601H26.095C26.0846 16.8566 26.0724 16.8531 26.062 16.8514C25.5328 16.7924 25.089 16.4057 24.9619 15.8923C24.9462 15.8264 24.9358 15.7587 24.9219 15.6928C24.9219 15.6165 24.9219 15.5402 24.9219 15.4639C24.9254 15.4535 24.9288 15.4414 24.9306 15.4309C25.0089 14.9072 25.2961 14.5499 25.7939 14.366C25.8896 14.3313 25.9941 14.3175 26.0933 14.2949C26.1699 14.2949 26.2465 14.2949 26.323 14.2949C26.3335 14.2984 26.3439 14.3019 26.3561 14.3036C26.8713 14.3626 27.3065 14.7285 27.4457 15.2246C27.4666 15.3026 27.4788 15.3824 27.4962 15.4622Z" fill="white"/>
<path d="M21.4561 15.4622V15.6911C21.4527 15.7015 21.4492 15.7137 21.4474 15.7241C21.3691 16.2478 21.0819 16.6051 20.5841 16.789C20.4884 16.8237 20.384 16.8375 20.2847 16.8601H20.055C20.0445 16.8566 20.0324 16.8531 20.0219 16.8514C19.4928 16.7924 19.0489 16.4057 18.9219 15.8923C18.9062 15.8264 18.8958 15.7587 18.8818 15.6928C18.8818 15.6165 18.8818 15.5402 18.8818 15.4639C18.8853 15.4535 18.8888 15.4414 18.8905 15.4309C18.9689 14.9072 19.2561 14.5499 19.7539 14.366C19.8496 14.3313 19.954 14.3175 20.0532 14.2949C20.1298 14.2949 20.2064 14.2949 20.283 14.2949C20.2934 14.2984 20.3039 14.3019 20.3161 14.3036C20.8313 14.3626 21.2664 14.7285 21.4057 15.2246C21.4266 15.3026 21.4387 15.3824 21.4561 15.4622Z" fill="white"/>
<path d="M11.4464 5.68385V5.91279C11.4429 5.92319 11.4394 5.93533 11.4377 5.94574C11.3594 6.46952 11.0722 6.82681 10.5744 7.01065C10.4786 7.04534 10.3742 7.05922 10.275 7.08177H10.0452C10.0348 7.0783 10.0226 7.07483 10.0121 7.07309C9.48301 7.01412 9.03917 6.62735 8.9121 6.11397C8.89644 6.04807 8.88599 5.98043 8.87207 5.91452C8.87207 5.83821 8.87207 5.76189 8.87207 5.68558C8.87555 5.67517 8.87903 5.66303 8.88077 5.65263C8.9591 5.12884 9.24629 4.77156 9.7441 4.58771C9.83983 4.55302 9.94427 4.53915 10.0435 4.5166C10.1201 4.5166 10.1967 4.5166 10.2732 4.5166C10.2837 4.52007 10.2941 4.52354 10.3063 4.52527C10.8215 4.58424 11.2567 4.9502 11.3959 5.44623C11.4168 5.52428 11.429 5.60406 11.4464 5.68385V5.68385Z" fill="white"/>
<path d="M14.4698 5.68385V5.91279C14.4663 5.92319 14.4629 5.93533 14.4611 5.94574C14.3828 6.46952 14.0956 6.82681 13.5978 7.01065C13.5021 7.04534 13.3976 7.05922 13.2984 7.08177H13.0687C13.0582 7.0783 13.046 7.07483 13.0356 7.07309C12.5065 7.01412 12.0626 6.62735 11.9355 6.11397C11.9199 6.04807 11.9094 5.98043 11.8955 5.91452C11.8955 5.83821 11.8955 5.76189 11.8955 5.68558C11.899 5.67517 11.9025 5.66303 11.9042 5.65263C11.9825 5.12884 12.2697 4.77156 12.7675 4.58771C12.8633 4.55302 12.9677 4.53915 13.0669 4.5166C13.1435 4.5166 13.2201 4.5166 13.2967 4.5166C13.3071 4.52007 13.3176 4.52354 13.3297 4.52527C13.845 4.58424 14.2801 4.9502 14.4193 5.44623C14.4402 5.52428 14.4524 5.60406 14.4698 5.68385V5.68385Z" fill="white"/>
<path d="M8.43174 5.68385V5.91279C8.42826 5.92319 8.42477 5.93533 8.42303 5.94574C8.34471 6.46952 8.05751 6.82681 7.55971 7.01065C7.46398 7.04534 7.35954 7.05922 7.26033 7.08177H7.03057C7.02013 7.0783 7.00794 7.07483 6.9975 7.07309C6.46836 7.01412 6.02452 6.62735 5.89746 6.11397C5.88179 6.04807 5.87135 5.98043 5.85742 5.91452C5.85742 5.83821 5.85742 5.76189 5.85742 5.68558C5.8609 5.67517 5.86438 5.66303 5.86612 5.65263C5.94445 5.12884 6.23165 4.77156 6.72945 4.58771C6.82518 4.55302 6.92962 4.53915 7.02883 4.5166C7.10542 4.5166 7.182 4.5166 7.25859 4.5166C7.26903 4.52007 7.27947 4.52354 7.29166 4.52527C7.80687 4.58424 8.24201 4.9502 8.38126 5.44623C8.40215 5.52428 8.41433 5.60406 8.43174 5.68385Z" fill="white"/>
<path d="M67.9953 3.48785H59.6127C59.5257 2.53741 59.9086 1.77427 60.7528 1.39791C60.9286 1.31986 61.1148 1.27477 61.308 1.25916C61.3185 1.25916 61.3306 1.25396 61.3411 1.25049C63.5586 1.25049 65.7778 1.25049 67.9953 1.25049V3.48785V3.48785Z" fill="#222222"/>
<path d="M67.9961 0.470215H61.3506V1.1501H67.9961V0.470215Z" fill="#222222"/>
<path d="M38.3208 20.2371C38.3121 20.1798 38.3086 20.1243 38.3086 20.0688C38.3086 20.0342 38.3121 19.9873 38.3173 19.9249C38.3225 19.8642 38.3364 19.7913 38.3591 19.7081C38.3817 19.6248 38.4095 19.5451 38.4444 19.4705C38.4792 19.3959 38.514 19.3283 38.5505 19.2676L38.7646 19.4254C38.7524 19.441 38.7385 19.4653 38.7246 19.4948C38.7089 19.5242 38.6933 19.5607 38.6776 19.6006C38.6619 19.6405 38.6463 19.6855 38.6323 19.7324C38.6184 19.7792 38.6062 19.8295 38.5958 19.8815C38.5871 19.9336 38.5801 19.9856 38.5784 20.0394C38.5784 20.055 38.5784 20.0688 38.5784 20.0845C38.5784 20.1243 38.5819 20.1625 38.5871 20.1989C38.5906 20.2215 38.5975 20.2492 38.608 20.2822C38.6184 20.3151 38.6341 20.3481 38.655 20.3828C38.6759 20.4175 38.702 20.4504 38.7333 20.4851C38.7646 20.5181 38.8029 20.5475 38.8482 20.5753C38.8934 20.6013 38.9456 20.6239 39.0048 20.6395C39.064 20.6568 39.1336 20.6637 39.2085 20.6637C39.3042 20.6637 39.3895 20.6551 39.4678 20.636C39.5444 20.6186 39.6123 20.5926 39.6715 20.5579C39.7306 20.5233 39.7794 20.4816 39.8177 20.4313C39.856 20.381 39.8873 20.3255 39.9064 20.2631C39.9308 20.1868 39.943 20.1087 39.9447 20.0307V20.0151C39.9447 19.9422 39.9395 19.8711 39.9273 19.8017C39.9151 19.7324 39.8995 19.6665 39.8786 19.604C39.8577 19.5416 39.8368 19.4878 39.8159 19.441C39.795 19.3942 39.7776 19.3577 39.762 19.3317C39.7463 19.3057 39.7376 19.2918 39.7376 19.2918L39.9621 19.1496C39.9621 19.1496 39.9761 19.1722 39.9952 19.2034C40.0144 19.2346 40.037 19.278 40.0614 19.3317C40.1101 19.4254 40.1571 19.4982 40.2023 19.5537C40.2476 19.6092 40.2876 19.6491 40.3277 19.6769C40.3677 19.7046 40.4042 19.722 40.4408 19.7306C40.4756 19.7376 40.5104 19.7428 40.5418 19.7428H40.5713V20.0064H40.5418C40.4199 20.0064 40.312 19.9787 40.2163 19.9249C40.2163 19.9457 40.2163 19.9665 40.2163 19.9873C40.2163 20.0342 40.2128 20.0879 40.2058 20.1469C40.1989 20.2059 40.1832 20.2718 40.1606 20.3429C40.1258 20.4435 40.0788 20.5319 40.0161 20.6048C39.9552 20.6776 39.8821 20.7383 39.8003 20.7869C39.7185 20.8354 39.628 20.8701 39.5287 20.8944C39.4295 20.9187 39.3251 20.9291 39.2137 20.9291C39.1023 20.9291 38.9909 20.9152 38.8899 20.8875C38.789 20.8597 38.7002 20.8164 38.6219 20.7591C38.5436 20.7019 38.4792 20.6308 38.427 20.5441C38.3747 20.4573 38.3399 20.355 38.3225 20.2371H38.3208ZM39.487 19.1392L39.2677 19.3577L39.0466 19.1375L39.2659 18.9189L39.487 19.1392Z" fill="white"/>
<path d="M40.5098 19.7446H40.6786C40.7326 19.7446 40.7883 19.7446 40.8474 19.7428C40.9066 19.7428 40.9623 19.7359 41.0145 19.7272C41.0667 19.7185 41.1155 19.7029 41.1607 19.6821C41.2043 19.6613 41.2391 19.6336 41.2652 19.5954C41.2948 19.5503 41.3122 19.5 41.3174 19.448C41.3174 19.4358 41.3174 19.4254 41.3174 19.4133C41.3174 19.3717 41.3104 19.3266 41.2982 19.278C41.2878 19.2416 41.2634 19.1948 41.2251 19.1375C41.1851 19.0803 41.1381 19.0196 41.0807 18.9554C41.0232 18.8912 40.9588 18.8236 40.8875 18.756C40.8161 18.6883 40.7447 18.6241 40.6699 18.5652L40.7012 18.2894L41.81 17.8159L41.9144 18.0605L40.9484 18.4646C40.9919 18.5027 41.0406 18.5444 41.0929 18.5912C41.1451 18.638 41.1973 18.6901 41.2478 18.7456C41.3157 18.8201 41.3731 18.893 41.4166 18.9606C41.4601 19.03 41.4949 19.0942 41.5193 19.1566C41.5437 19.219 41.5593 19.2763 41.568 19.3318C41.5733 19.3682 41.5767 19.4012 41.5767 19.4341C41.5767 19.4532 41.5767 19.4792 41.5715 19.5122C41.568 19.5451 41.5593 19.5815 41.5454 19.6232C41.5315 19.6648 41.5158 19.7029 41.4967 19.7359C41.4166 19.8781 41.2808 19.9666 41.0911 20.0012C41.0598 20.0082 41.0198 20.0099 40.9745 20.0099H40.5115V19.7463L40.5098 19.7446Z" fill="white"/>
<path d="M44.3516 19.7445V20.0081H44.3237C44.2889 20.0081 44.2489 20.0047 44.2019 19.9995C44.1549 19.9943 44.1079 19.9804 44.0609 19.9578C43.9895 19.9249 43.9304 19.8694 43.8834 19.7931C43.8259 19.8017 43.7737 19.8087 43.7267 19.8122C43.678 19.8156 43.6327 19.8191 43.5875 19.8191C43.356 19.8191 43.1941 19.7636 43.1036 19.6509C43.0775 19.6214 43.0601 19.5884 43.0496 19.5537C43.0392 19.519 43.034 19.4844 43.0322 19.4514V19.4271C43.0322 19.4028 43.034 19.3786 43.0392 19.3525C43.0444 19.3265 43.0496 19.3057 43.0583 19.2866C43.0827 19.2363 43.1123 19.1895 43.1454 19.1479C43.1784 19.1063 43.215 19.0681 43.2533 19.0334C43.2916 19.0005 43.3316 18.9692 43.3716 18.9432C43.4134 18.9172 43.4517 18.8929 43.49 18.8739C43.5283 18.853 43.5648 18.8374 43.5979 18.8236C43.631 18.8097 43.6623 18.7975 43.6867 18.7889C43.6797 18.7212 43.6745 18.6709 43.671 18.6397C43.6675 18.6085 43.6658 18.5911 43.6658 18.5911L43.9304 18.5356C43.9304 18.5356 43.9338 18.5582 43.9356 18.5825C43.9391 18.6085 43.9408 18.638 43.9443 18.6727C43.9478 18.7073 43.9513 18.7438 43.9565 18.7837C43.96 18.8236 43.9652 18.86 43.9687 18.8929C43.9721 18.9276 43.9756 18.9571 43.9774 18.9814C43.9808 19.0074 43.9826 19.023 43.9826 19.0282C43.9965 19.1444 44.0104 19.2381 44.0209 19.3127C44.0331 19.3855 44.0435 19.4445 44.0522 19.4896C44.0609 19.5329 44.0679 19.5641 44.0731 19.5832C44.0783 19.6023 44.0818 19.6127 44.0853 19.6196C44.1062 19.6682 44.1358 19.7012 44.1723 19.7185C44.2089 19.7358 44.2576 19.7445 44.3203 19.7445H44.3481H44.3516ZM43.7198 19.0646C43.6989 19.0733 43.6728 19.0837 43.6432 19.0976C43.6136 19.1115 43.5823 19.1253 43.5509 19.1427C43.5196 19.16 43.4865 19.1774 43.4569 19.1964C43.4256 19.2155 43.3977 19.2381 43.3734 19.2606C43.349 19.2832 43.3281 19.3092 43.3142 19.3352C43.2985 19.3612 43.2916 19.389 43.2916 19.4184C43.2916 19.4479 43.3003 19.4705 43.3194 19.4896C43.3386 19.5086 43.3612 19.5225 43.3908 19.5329C43.4204 19.5433 43.4534 19.5503 43.49 19.5537C43.5213 19.5572 43.5509 19.5589 43.5822 19.5589C43.5892 19.5589 43.6031 19.5589 43.624 19.5589C43.6449 19.5589 43.6728 19.5572 43.7076 19.552C43.7406 19.5485 43.7702 19.5451 43.7929 19.5399C43.7824 19.4878 43.7702 19.4237 43.7598 19.3491C43.7493 19.2745 43.7354 19.1791 43.7215 19.0646H43.7198Z" fill="white"/>
<path d="M45.8974 20.0081H45.8696C45.7251 20.0081 45.5928 19.9959 45.471 19.9699C45.3492 19.9439 45.2378 19.9023 45.1385 19.8433C45.0811 19.8711 45.0202 19.8936 44.9523 19.9144C44.8844 19.9352 44.8165 19.9508 44.7452 19.9647C44.6738 19.9786 44.6025 19.989 44.5311 19.9959C44.4597 20.0029 44.3901 20.0063 44.3257 20.0063H44.2979V19.7427H44.3257C44.371 19.7427 44.4197 19.741 44.4719 19.7375C44.5241 19.734 44.5746 19.7271 44.6251 19.7202C44.6756 19.7132 44.7243 19.7028 44.7695 19.6924C44.8148 19.682 44.8531 19.6716 44.8862 19.6577C44.8514 19.6248 44.8148 19.5901 44.78 19.5502C44.7434 19.5103 44.7086 19.4704 44.6721 19.4271C44.6355 19.3837 44.599 19.3403 44.5607 19.297C44.5241 19.2519 44.4858 19.2085 44.4475 19.1652L44.4615 18.9778C44.5067 18.9362 44.5555 18.9015 44.6059 18.8738C44.6564 18.846 44.7051 18.8235 44.7539 18.8061C44.8026 18.7888 44.8496 18.7749 44.8949 18.7662C44.9401 18.7576 44.9819 18.7506 45.0202 18.7472C45.062 18.742 45.1037 18.7402 45.1455 18.7402C45.1942 18.7402 45.2517 18.7454 45.3178 18.7541C45.384 18.7628 45.4536 18.7836 45.5267 18.8131C45.5737 18.8339 45.6137 18.8582 45.6433 18.8825C45.6729 18.9085 45.6955 18.9328 45.7112 18.957C45.7269 18.9813 45.739 19.0039 45.7443 19.0264C45.7495 19.049 45.753 19.068 45.753 19.0836C45.753 19.0923 45.753 19.101 45.753 19.1114C45.753 19.1461 45.7443 19.1877 45.7269 19.2345C45.7095 19.2814 45.6834 19.3334 45.6468 19.3872C45.612 19.4409 45.5702 19.493 45.525 19.5433C45.4797 19.5936 45.4327 19.6352 45.3857 19.6699C45.4484 19.6924 45.5197 19.7115 45.6033 19.7219C45.6868 19.734 45.7739 19.7392 45.8661 19.7392H45.894V20.0029L45.8974 20.0081ZM45.142 19.5276C45.1681 19.5138 45.1942 19.4964 45.2204 19.4739C45.2482 19.4513 45.2743 19.4271 45.2987 19.401C45.3248 19.375 45.3492 19.3473 45.3718 19.3178C45.3944 19.2883 45.4153 19.2606 45.431 19.2345C45.4484 19.2085 45.4623 19.1825 45.4727 19.16C45.4832 19.1374 45.4884 19.1183 45.4884 19.1027C45.4414 19.0715 45.3875 19.049 45.3265 19.0333C45.2656 19.0177 45.2012 19.0091 45.1351 19.0091C45.0689 19.0091 45.001 19.0177 44.9332 19.0333C44.8653 19.049 44.8026 19.075 44.7452 19.1079C44.82 19.1981 44.8879 19.2779 44.9506 19.3473C45.0132 19.4166 45.0759 19.4773 45.1403 19.5294L45.142 19.5276Z" fill="white"/>
<path d="M45.8438 19.7444H46.1362C46.2563 19.7444 46.3764 19.7322 46.4947 19.7097C46.6148 19.6871 46.7314 19.6559 46.8481 19.6195C46.9647 19.5813 47.0778 19.538 47.1875 19.4912C47.2989 19.4426 47.405 19.3923 47.5077 19.342C47.4451 19.3212 47.3859 19.2969 47.3302 19.2726C47.2728 19.2466 47.2171 19.2223 47.1631 19.1963C47.1213 19.1772 47.0796 19.1582 47.0395 19.1391C46.9995 19.12 46.9612 19.1044 46.9229 19.0905C46.8846 19.0766 46.8498 19.0645 46.8167 19.0558C46.7837 19.0472 46.7523 19.0437 46.7245 19.0437C46.6879 19.0437 46.6531 19.0524 46.62 19.068C46.587 19.0836 46.5556 19.1044 46.5278 19.1287C46.4999 19.1529 46.4738 19.1807 46.4512 19.2084C46.4286 19.2362 46.4094 19.264 46.3938 19.2882C46.3781 19.3125 46.3659 19.3333 46.3572 19.3507C46.3485 19.368 46.345 19.3767 46.345 19.3767L46.1014 19.2674C46.1014 19.2674 46.1066 19.257 46.1135 19.2431C46.1205 19.2293 46.1309 19.2119 46.1431 19.1894C46.1553 19.1686 46.1727 19.1425 46.1901 19.1148C46.2093 19.087 46.2302 19.0593 46.2545 19.0298C46.3241 18.9448 46.399 18.8824 46.4773 18.8408C46.5556 18.7991 46.6392 18.7783 46.7262 18.7783C46.7697 18.7783 46.8132 18.7835 46.8585 18.7939C46.9038 18.8043 46.949 18.8165 46.9943 18.8338C47.0395 18.8512 47.0865 18.8685 47.1353 18.8911C47.1823 18.9119 47.231 18.9344 47.2797 18.957C47.3337 18.983 47.3859 19.0073 47.4416 19.0315C47.4956 19.0558 47.5513 19.0766 47.6052 19.0974C47.6609 19.1165 47.7149 19.1321 47.7706 19.1443C47.8263 19.1564 47.8802 19.1616 47.9359 19.1616L47.9864 19.4166C47.9237 19.4426 47.8611 19.4703 47.7984 19.4998C47.7358 19.5293 47.6714 19.5605 47.6035 19.5952C47.5043 19.6438 47.3981 19.6941 47.2849 19.7426C47.1718 19.7912 47.0517 19.8363 46.9281 19.8762C46.8045 19.9161 46.674 19.949 46.5417 19.9733C46.4094 19.9976 46.2737 20.0115 46.1379 20.0115H45.8455V19.7478L45.8438 19.7444ZM47.177 20.4867L46.9577 20.7052L46.7367 20.485L46.956 20.2664L47.177 20.4867Z" fill="white"/>
<path d="M48.4784 17.8853C48.5167 18.2495 48.5394 18.5755 48.5481 18.8634C48.5515 19.0126 48.5515 19.1514 48.5515 19.2832C48.5515 19.363 48.5515 19.467 48.5481 19.5988C48.5463 19.7306 48.5376 19.8711 48.5254 20.0203L48.2591 20.0047C48.273 19.8035 48.2835 19.6196 48.287 19.4531C48.2887 19.3786 48.2905 19.3057 48.2905 19.2363C48.2905 19.1531 48.2905 19.0733 48.287 19.0005C48.2696 18.5651 48.2452 18.2078 48.2139 17.9251L48.4784 17.8853V17.8853Z" fill="white"/>
<path d="M49.5771 19.9143C49.5771 20.0322 49.5528 20.1432 49.5023 20.2508C49.4518 20.3566 49.3857 20.4572 49.3021 20.5491C49.2186 20.641 49.1246 20.7243 49.0167 20.8006C48.9087 20.8769 48.7991 20.9428 48.686 21L48.5693 20.7624C48.6337 20.7295 48.6981 20.693 48.7625 20.6531C48.8269 20.6133 48.8861 20.5699 48.9436 20.5248C49.001 20.4797 49.0532 20.4311 49.1002 20.3808C49.1472 20.3305 49.189 20.2768 49.2203 20.2213C49.2534 20.1658 49.2778 20.1085 49.2934 20.0478C49.3056 20.0045 49.3108 19.9611 49.3108 19.916C49.3108 19.8987 49.3108 19.8813 49.3073 19.8657C49.3004 19.8154 49.2917 19.7599 49.2777 19.701C49.2638 19.642 49.2499 19.5848 49.236 19.5275C49.2203 19.4703 49.2046 19.4183 49.1907 19.368C49.1751 19.3177 49.1629 19.276 49.1507 19.2431L49.4048 19.165C49.4396 19.2691 49.4727 19.3576 49.504 19.4304C49.5371 19.5032 49.5702 19.5639 49.6032 19.609C49.6381 19.6559 49.6729 19.6888 49.7112 19.7114C49.7477 19.7322 49.7895 19.7443 49.8347 19.7443H49.8556V20.008H49.833C49.8208 20.008 49.8034 20.008 49.7843 20.008C49.7651 20.008 49.7425 20.0028 49.7181 19.9975C49.6938 19.9906 49.6694 19.9819 49.645 19.9681C49.6206 19.9542 49.5963 19.9351 49.5736 19.9108V19.916L49.5771 19.9143Z" fill="white"/>
<path d="M49.8364 19.7445C49.9165 19.7445 49.9827 19.7324 50.0366 19.7081C50.0888 19.6838 50.1341 19.6509 50.1724 19.6093C50.2089 19.5676 50.242 19.5225 50.2698 19.4688C50.2977 19.4168 50.3255 19.363 50.3534 19.3075C50.3778 19.2572 50.4039 19.2069 50.4317 19.1583C50.4596 19.1098 50.4909 19.0664 50.524 19.0282C50.5588 18.9901 50.5988 18.9589 50.6423 18.9363C50.6876 18.912 50.7381 18.8999 50.799 18.8999C50.8703 18.8999 50.933 18.9138 50.987 18.9415C51.0409 18.9693 51.0879 19.0074 51.1262 19.0525C51.1645 19.0976 51.1958 19.1497 51.2185 19.2086C51.2411 19.2676 51.2568 19.3266 51.2672 19.3855C51.2724 19.4167 51.2742 19.448 51.2742 19.4792C51.2742 19.5087 51.2707 19.5451 51.2655 19.5919C51.2602 19.6388 51.2463 19.689 51.2219 19.7463C51.1976 19.8035 51.1662 19.8503 51.1262 19.892C51.0862 19.9336 51.0357 19.9631 50.9783 19.9787C50.9417 19.9891 50.9052 19.9943 50.8669 19.9943C50.8495 19.9943 50.8216 19.9926 50.7833 19.9874C50.7468 19.9822 50.7015 19.97 50.6476 19.9509C50.5953 19.9301 50.5449 19.9058 50.4961 19.8764C50.4474 19.8469 50.4021 19.8174 50.3604 19.7862C50.3255 19.833 50.289 19.8712 50.2507 19.9006C50.2124 19.9301 50.1724 19.9509 50.1289 19.9666C50.0853 19.9822 50.0401 19.9926 49.9914 19.9978C49.9426 20.003 49.8904 20.0064 49.8364 20.0064H49.8086V19.7428H49.8364V19.7445ZM50.517 19.5711C50.5988 19.6318 50.6737 19.6752 50.7415 19.7012C50.7868 19.7185 50.8268 19.7289 50.8634 19.7289C50.8808 19.7289 50.8965 19.7272 50.9104 19.7237C50.926 19.7203 50.94 19.7099 50.9556 19.6925C50.9696 19.6752 50.9817 19.6544 50.9922 19.6266C51.0026 19.5989 51.0096 19.5694 51.0148 19.533C51.0166 19.5191 51.0183 19.5035 51.0183 19.4896C51.0183 19.467 51.0166 19.4445 51.0131 19.4202C51.0131 19.4133 51.0096 19.4029 51.0061 19.3873C51.0026 19.3717 50.9974 19.3543 50.9904 19.3352C50.9835 19.3162 50.9748 19.2971 50.9643 19.2763C50.9539 19.2555 50.94 19.2381 50.9243 19.2208C50.9086 19.2034 50.8912 19.1913 50.8703 19.1791C50.8495 19.1687 50.8251 19.1635 50.799 19.1635C50.7816 19.1635 50.7642 19.1687 50.7485 19.1791C50.7328 19.1895 50.7172 19.2052 50.7015 19.2277C50.6858 19.2485 50.6684 19.2763 50.651 19.3075C50.6336 19.3404 50.6127 19.3786 50.5919 19.422L50.5187 19.5676L50.517 19.5711Z" fill="white"/>
<path d="M52.4502 20.6913C52.5894 20.6635 52.713 20.6254 52.8227 20.5751C52.9323 20.5265 53.0263 20.471 53.1047 20.4086C53.183 20.3461 53.2456 20.2802 53.2909 20.2109C53.3362 20.1415 53.364 20.0738 53.3744 20.0062H53.2213C53.183 20.0062 53.1377 20.0045 53.089 19.9993C52.894 19.9871 52.7496 19.9247 52.6556 19.8085C52.6138 19.7564 52.5877 19.6957 52.5773 19.6281C52.5703 19.5917 52.5686 19.557 52.5686 19.5206C52.5686 19.4841 52.572 19.4425 52.5807 19.3905C52.5877 19.3385 52.6068 19.2777 52.6347 19.2118C52.6625 19.1459 52.6956 19.087 52.7339 19.0384C52.7792 18.9812 52.8296 18.9395 52.8836 18.9101C52.9376 18.8806 52.9933 18.8667 53.0507 18.8667C53.1778 18.8667 53.2961 18.9239 53.4023 19.0384C53.4475 19.0887 53.4876 19.1459 53.5224 19.2118C53.5572 19.2777 53.5851 19.3489 53.6059 19.4234C53.6268 19.498 53.6425 19.5778 53.6512 19.6593C53.6547 19.6975 53.6564 19.7356 53.6564 19.7755C53.6564 19.8189 53.6547 19.8622 53.6495 19.9039C53.639 20.0027 53.6181 20.0946 53.5833 20.1796C53.5485 20.2646 53.505 20.3444 53.4528 20.4172C53.3988 20.4901 53.3379 20.556 53.2683 20.615C53.1986 20.6739 53.1238 20.726 53.042 20.7711C52.9619 20.8162 52.8766 20.8526 52.7879 20.8821C52.6991 20.9115 52.6086 20.9341 52.5146 20.948L52.4519 20.6878L52.4502 20.6913ZM53.0455 19.1338C53.0194 19.1338 52.995 19.1442 52.9706 19.1633C52.948 19.1841 52.9271 19.2084 52.908 19.2413C52.8888 19.2725 52.8749 19.3072 52.861 19.3471C52.847 19.387 52.8401 19.4252 52.8349 19.4616C52.8314 19.4824 52.8314 19.5032 52.8314 19.5223C52.8314 19.5379 52.8314 19.5587 52.8366 19.5813C52.8401 19.6056 52.8488 19.6264 52.8645 19.6454C52.8784 19.6628 52.894 19.6784 52.9149 19.6888C52.9358 19.6992 52.9567 19.7096 52.9793 19.7148C53.002 19.7218 53.0246 19.727 53.0472 19.7304C53.0698 19.7339 53.089 19.7356 53.1047 19.7356C53.1499 19.7391 53.1917 19.7391 53.2317 19.7391C53.2422 19.7391 53.2613 19.7391 53.2892 19.7391C53.317 19.7391 53.3483 19.7374 53.3849 19.7339C53.3814 19.6767 53.3762 19.6229 53.364 19.5709C53.3536 19.5206 53.3396 19.472 53.3222 19.4286C53.3048 19.3853 53.2857 19.3454 53.2648 19.309C53.2439 19.2743 53.2213 19.2431 53.1986 19.217C53.1899 19.2084 53.1795 19.198 53.1691 19.1876C53.1586 19.1772 53.1464 19.1685 53.1325 19.1598C53.1186 19.1511 53.1064 19.1442 53.0907 19.139C53.0751 19.1338 53.0611 19.1303 53.0455 19.1303V19.1338Z" fill="white"/>
<path d="M54.8296 20.2371C54.8209 20.1798 54.8174 20.1243 54.8174 20.0688C54.8174 20.0342 54.8209 19.9873 54.8261 19.9249C54.8313 19.8642 54.8452 19.7913 54.8679 19.7081C54.8905 19.6248 54.9183 19.5451 54.9531 19.4705C54.988 19.3959 55.0228 19.3283 55.0593 19.2676L55.2734 19.4254C55.2612 19.441 55.2473 19.4653 55.2334 19.4948C55.2177 19.5242 55.202 19.5607 55.1864 19.6006C55.1707 19.6405 55.1551 19.6855 55.1411 19.7324C55.1272 19.7792 55.115 19.8295 55.1046 19.8815C55.0959 19.9336 55.0889 19.9856 55.0872 20.0394C55.0872 20.055 55.0872 20.0688 55.0872 20.0845C55.0872 20.1243 55.0907 20.1625 55.0959 20.1989C55.0994 20.2215 55.1063 20.2492 55.1168 20.2822C55.1272 20.3151 55.1429 20.3481 55.1638 20.3828C55.1846 20.4175 55.2108 20.4504 55.2421 20.4851C55.2734 20.5181 55.3117 20.5475 55.357 20.5753C55.4022 20.6013 55.4544 20.6239 55.5136 20.6395C55.5728 20.6568 55.6424 20.6637 55.7173 20.6637C55.813 20.6637 55.8983 20.6551 55.9766 20.636C56.0532 20.6186 56.1211 20.5926 56.1803 20.5579C56.2394 20.5233 56.2882 20.4816 56.3265 20.4313C56.3648 20.381 56.3961 20.3255 56.4152 20.2631C56.4396 20.1868 56.4518 20.1087 56.4535 20.0307V20.0151C56.4535 19.9422 56.4483 19.8711 56.4361 19.8017C56.4239 19.7324 56.4083 19.6665 56.3874 19.604C56.3665 19.5416 56.3456 19.4878 56.3247 19.441C56.3038 19.3942 56.2864 19.3577 56.2708 19.3317C56.2551 19.3057 56.2464 19.2918 56.2464 19.2918L56.4709 19.1496C56.4709 19.1496 56.4849 19.1722 56.504 19.2034C56.5231 19.2346 56.5458 19.278 56.5701 19.3317C56.6189 19.4254 56.6659 19.4982 56.7111 19.5537C56.7564 19.6092 56.7964 19.6491 56.8365 19.6769C56.8765 19.7046 56.913 19.722 56.9496 19.7306C56.9844 19.7376 57.0192 19.7428 57.0505 19.7428H57.0801V20.0064H57.0505C56.9287 20.0064 56.8208 19.9787 56.7251 19.9249C56.7251 19.9457 56.7251 19.9665 56.7251 19.9873C56.7251 20.0342 56.7216 20.0879 56.7146 20.1469C56.7076 20.2059 56.692 20.2718 56.6694 20.3429C56.6345 20.4435 56.5876 20.5319 56.5249 20.6048C56.464 20.6776 56.3909 20.7383 56.3091 20.7869C56.2273 20.8354 56.1367 20.8701 56.0375 20.8944C55.9383 20.9187 55.8339 20.9291 55.7225 20.9291C55.6111 20.9291 55.4997 20.9152 55.3987 20.8875C55.2978 20.8597 55.209 20.8164 55.1307 20.7591C55.0524 20.7019 54.988 20.6308 54.9357 20.5441C54.8835 20.4573 54.8487 20.355 54.8313 20.2371H54.8296ZM55.9958 19.1392L55.7764 19.3577L55.5554 19.1375L55.7747 18.9189L55.9958 19.1392Z" fill="white"/>
<path d="M58.2221 19.7446V20.0082H58.1942C58.1037 20.0082 58.0271 19.9926 57.9679 19.9614C57.907 19.9302 57.8583 19.8903 57.82 19.8417C57.7904 19.8695 57.7591 19.8938 57.726 19.9146C57.6929 19.9354 57.6512 19.9527 57.6042 19.9666C57.5572 19.9805 57.5032 19.9909 57.4405 19.9978C57.3779 20.0048 57.3048 20.0082 57.2195 20.0082H57.0176V19.7446H57.2195C57.3048 19.7446 57.3779 19.7377 57.4388 19.7238C57.4997 19.7099 57.5485 19.6908 57.5868 19.6631C57.625 19.6353 57.6529 19.6024 57.6703 19.5625C57.6877 19.5226 57.6981 19.4758 57.6981 19.422C57.6981 19.3717 57.6947 19.3197 57.686 19.2659C57.6773 19.2122 57.6651 19.1532 57.6442 19.0838L57.8983 19.0127C57.907 19.0439 57.9157 19.0751 57.9209 19.1029C57.9262 19.1306 57.9331 19.1619 57.9366 19.1948C57.9418 19.2278 57.9453 19.2624 57.9488 19.2989C57.9523 19.337 57.9558 19.3787 57.961 19.4272C57.9645 19.4602 57.9679 19.4949 57.9766 19.5313C57.9836 19.5677 57.9958 19.6024 58.0132 19.6336C58.0306 19.6648 58.0532 19.6908 58.0828 19.7117C58.1124 19.7325 58.149 19.7429 58.196 19.7429H58.2238L58.2221 19.7446ZM57.4875 20.447L57.2682 20.6656L57.0472 20.447L57.2665 20.2285L57.4875 20.4488V20.447ZM58.041 20.447L57.8217 20.6656L57.6007 20.4453L57.82 20.2268L58.041 20.4453V20.447Z" fill="white"/>
<path d="M59.1723 19.7443V20.008H59.1444C59.0539 20.008 58.9773 19.9924 58.9182 19.9611C58.8572 19.9299 58.8085 19.89 58.7702 19.8415C58.7128 19.8987 58.6397 19.9403 58.5509 19.9681C58.4621 19.9958 58.349 20.0097 58.2184 20.0097H58.168V19.7461H58.2184C58.3699 19.7461 58.4795 19.7183 58.5474 19.6646C58.6153 19.6108 58.6501 19.5293 58.6501 19.4235C58.6501 19.3732 58.6466 19.3211 58.6379 19.2674C58.6292 19.2136 58.617 19.1546 58.5961 19.0853L58.8503 19.0142C58.859 19.0454 58.8677 19.0766 58.8729 19.1043C58.8799 19.1338 58.8851 19.1633 58.8886 19.1963C58.8938 19.2292 58.8973 19.2639 58.9008 19.3003C58.9042 19.3385 58.9095 19.3801 58.9129 19.4287C58.9164 19.4616 58.9199 19.4963 58.9286 19.5327C58.9356 19.5692 58.9477 19.6039 58.9634 19.6351C58.9808 19.6663 59.0034 19.6923 59.033 19.7131C59.0626 19.7339 59.0992 19.7443 59.1462 19.7443H59.174H59.1723ZM58.8677 20.4884L58.6484 20.7069L58.4273 20.4867L58.6466 20.2681L58.8677 20.4884Z" fill="white"/>
<path d="M59.1189 19.7444H59.2756C59.3278 19.7444 59.3765 19.7444 59.42 19.7409C59.4636 19.7392 59.5036 19.7322 59.5401 19.7218C59.5767 19.7114 59.608 19.6958 59.6341 19.6733C59.6602 19.6507 59.6829 19.623 59.702 19.5848C59.7107 19.5657 59.7177 19.5414 59.7229 19.5137C59.7264 19.4946 59.7264 19.4738 59.7264 19.453C59.7264 19.4408 59.7264 19.4235 59.7229 19.3992C59.7194 19.3749 59.7159 19.342 59.7055 19.3004C59.6951 19.2587 59.6811 19.2154 59.662 19.1685L59.5454 18.8806L59.7856 18.7627C59.7856 18.7627 59.789 18.7731 59.7977 18.7904C59.8065 18.8078 59.8169 18.8321 59.8291 18.8616C59.8413 18.891 59.8569 18.9257 59.8709 18.9639C59.8865 19.0038 59.9004 19.0437 59.9144 19.0888C59.9544 19.2188 59.9788 19.3333 59.984 19.4322C59.984 19.446 59.984 19.4617 59.984 19.4755C59.984 19.557 59.9701 19.6282 59.944 19.6906C59.9161 19.7513 59.8848 19.8016 59.8447 19.8432C59.8065 19.8831 59.7612 19.9161 59.709 19.9403C59.6585 19.9646 59.6011 19.982 59.5367 19.9924C59.474 20.0028 59.4044 20.008 59.3313 20.008H59.1172V19.7444H59.1189ZM59.7751 20.4884L59.5558 20.7069L59.3348 20.4867L59.5541 20.2681L59.7751 20.4884Z" fill="white"/>
<path d="M61.8014 19.8069C61.7997 19.8363 61.7927 19.8624 61.7788 19.8866C61.7648 19.9109 61.7474 19.9317 61.7265 19.9491C61.7057 19.9664 61.6813 19.9803 61.6534 19.9907C61.6256 20.0011 61.5977 20.0063 61.5699 20.0063C61.5281 20.0063 61.4898 19.9976 61.4585 19.982C61.4254 19.9647 61.3993 19.9421 61.3767 19.9144C61.3541 19.8866 61.3384 19.8537 61.328 19.8173C61.3175 19.7808 61.3105 19.7427 61.3105 19.7011C61.3105 19.4912 61.4185 19.3091 61.6326 19.1582C61.65 19.1703 61.6691 19.186 61.69 19.2016C61.7109 19.2172 61.7318 19.2345 61.7561 19.2536C61.5856 19.3767 61.502 19.5016 61.502 19.6317C61.5316 19.6143 61.5629 19.6057 61.596 19.6057C61.5977 19.6057 61.6082 19.6057 61.6273 19.6057C61.6465 19.6057 61.6708 19.6143 61.7022 19.63C61.7335 19.6456 61.7579 19.6698 61.777 19.6993C61.7944 19.7271 61.8031 19.7583 61.8031 19.7947V19.8051L61.8014 19.8069Z" fill="white"/>
<path d="M63.5748 20.0064C63.5313 20.0064 63.4808 20.0012 63.4216 19.9908C63.3624 19.9804 63.3032 19.9665 63.2458 19.9492C63.1866 19.9318 63.1344 19.9128 63.0857 19.8919C63.0369 19.8711 63.0021 19.8503 62.9795 19.8295L63.0909 19.5763C63.124 19.5971 63.164 19.6179 63.211 19.6387C63.258 19.6595 63.3085 19.6769 63.3607 19.6908C63.4129 19.7064 63.4686 19.7168 63.526 19.7237C63.5608 19.7289 63.5939 19.7306 63.627 19.7306C63.6479 19.7306 63.6757 19.7306 63.7123 19.7254C63.7488 19.722 63.7889 19.7116 63.8341 19.6942C63.8794 19.6769 63.9159 19.6491 63.9473 19.6127C63.9612 19.5971 63.9681 19.5728 63.9681 19.5399C63.9681 19.5173 63.9647 19.4878 63.9577 19.4566C63.9473 19.4133 63.9316 19.3664 63.9107 19.3179C63.8881 19.2693 63.862 19.2225 63.8306 19.1739C63.7993 19.1253 63.7645 19.0785 63.7279 19.0334C63.6897 18.9883 63.6514 18.945 63.6096 18.9068C63.5678 18.8669 63.5278 18.8322 63.4843 18.8027C63.4425 18.7715 63.4007 18.7472 63.3607 18.7299L63.4703 18.4854C63.5243 18.5096 63.5765 18.5409 63.6305 18.579C63.6844 18.6172 63.7366 18.6605 63.7871 18.7091C63.8376 18.7577 63.8863 18.8097 63.9333 18.8652C63.9803 18.9207 64.0221 18.9797 64.0604 19.0386C64.0987 19.0976 64.1318 19.1583 64.1596 19.219C64.1875 19.2797 64.2066 19.3387 64.2205 19.3942C64.231 19.4445 64.2362 19.4896 64.2362 19.5295C64.2362 19.5693 64.2327 19.6058 64.224 19.637C64.217 19.6682 64.2066 19.696 64.1944 19.7185C64.1822 19.7411 64.1683 19.7619 64.1544 19.7792C64.1213 19.8191 64.0848 19.8521 64.0412 19.8815C63.9977 19.9093 63.9507 19.9336 63.9003 19.9509C63.8498 19.9683 63.7976 19.9821 63.7436 19.9908C63.6897 19.9995 63.6357 20.0029 63.5817 20.0029L63.5748 20.0064Z" fill="white"/>
<path d="M65.2041 19.9143C65.2041 20.0322 65.1797 20.1432 65.1292 20.2508C65.0788 20.3566 65.0126 20.4572 64.9291 20.5491C64.8455 20.641 64.7515 20.7243 64.6436 20.8006C64.5357 20.8769 64.426 20.9428 64.3129 21L64.1963 20.7624C64.2607 20.7295 64.3251 20.693 64.3895 20.6531C64.4539 20.6133 64.5131 20.5699 64.5705 20.5248C64.628 20.4797 64.6802 20.4311 64.7272 20.3808C64.7742 20.3305 64.8159 20.2768 64.8473 20.2213C64.8803 20.1658 64.9047 20.1085 64.9204 20.0478C64.9326 20.0045 64.9378 19.9611 64.9378 19.916C64.9378 19.8987 64.9378 19.8813 64.9343 19.8657C64.9273 19.8154 64.9186 19.7599 64.9047 19.701C64.8908 19.642 64.8769 19.5848 64.8629 19.5275C64.8473 19.4703 64.8316 19.4183 64.8177 19.368C64.802 19.3177 64.7898 19.276 64.7776 19.2431L65.0318 19.165C65.0666 19.2691 65.0996 19.3576 65.131 19.4304C65.164 19.5032 65.1971 19.5639 65.2302 19.609C65.265 19.6559 65.2998 19.6888 65.3381 19.7114C65.3747 19.7322 65.4164 19.7443 65.4617 19.7443H65.4826V20.008H65.4599C65.4478 20.008 65.4304 20.008 65.4112 20.008C65.3921 20.008 65.3694 20.0028 65.3451 19.9975C65.3207 19.9906 65.2963 19.9819 65.272 19.9681C65.2476 19.9542 65.2232 19.9351 65.2006 19.9108V19.916L65.2041 19.9143Z" fill="white"/>
<path d="M65.4334 19.7444H65.9051C65.9416 19.7444 65.9764 19.7374 66.013 19.7235C66.0495 19.7097 66.0826 19.6906 66.1122 19.6663C66.1418 19.642 66.1662 19.6143 66.1853 19.5831C66.2045 19.5518 66.2149 19.5206 66.2184 19.4877C66.2184 19.4773 66.2184 19.4668 66.2184 19.4547C66.2184 19.4131 66.2097 19.368 66.194 19.3177C66.1783 19.2674 66.154 19.2136 66.1227 19.1564C66.0896 19.0992 66.053 19.0419 66.0095 18.9864C65.966 18.9309 65.9207 18.8772 65.8737 18.8269C65.8267 18.7766 65.7798 18.7297 65.731 18.6864C65.6823 18.643 65.6388 18.6066 65.5987 18.5754L65.6335 18.2788L66.8258 17.7671L66.9303 18.0117L65.8598 18.4592C65.9277 18.5147 65.9869 18.5684 66.0391 18.6239C66.0913 18.6794 66.1383 18.7349 66.1801 18.7904C66.2219 18.8459 66.2584 18.9014 66.2915 18.9569C66.3246 19.0124 66.3559 19.0679 66.3855 19.1234C66.4151 19.1789 66.4447 19.2344 66.476 19.2917C66.5056 19.3489 66.5369 19.4044 66.5717 19.4616C66.5978 19.505 66.6257 19.5432 66.6553 19.5779C66.6849 19.6125 66.7162 19.642 66.751 19.6663C66.7858 19.6906 66.8241 19.7097 66.8659 19.7235C66.9076 19.7374 66.9546 19.7444 67.0034 19.7461H67.0887V20.0097H67.0504C66.986 20.0097 66.9285 20.0062 66.8798 19.9976C66.8311 19.9889 66.7823 19.9785 66.7353 19.9629C66.6709 19.9403 66.6118 19.9057 66.5578 19.8606C66.5038 19.8155 66.4568 19.7669 66.4168 19.7149C66.3872 19.7721 66.3489 19.8207 66.3002 19.8658C66.2706 19.8918 66.2393 19.9143 66.2062 19.9317C66.1731 19.949 66.1401 19.9646 66.1035 19.975C66.0669 19.9854 66.0321 19.9941 65.9956 19.9993C65.959 20.0045 65.9207 20.008 65.8842 20.0097H65.4316V19.7461L65.4334 19.7444ZM66.7353 17.6319L65.6509 18.0897L65.6597 17.918L66.6709 17.4966L66.7336 17.6319H66.7353Z" fill="white"/>
<path d="M67.0369 19.7444H67.1935C67.2458 19.7444 67.2945 19.7444 67.338 19.7409C67.3815 19.7392 67.4216 19.7322 67.4581 19.7218C67.4947 19.7114 67.526 19.6958 67.5521 19.6733C67.5782 19.6507 67.6008 19.623 67.62 19.5848C67.6287 19.5657 67.6357 19.5414 67.6409 19.5137C67.6444 19.4946 67.6444 19.4738 67.6444 19.453C67.6444 19.4408 67.6444 19.4235 67.6409 19.3992C67.6374 19.3749 67.6339 19.342 67.6235 19.3004C67.613 19.2587 67.5991 19.2154 67.58 19.1685L67.4633 18.8806L67.7035 18.7627C67.7035 18.7627 67.707 18.7731 67.7157 18.7904C67.7244 18.8078 67.7349 18.8321 67.7471 18.8616C67.7592 18.891 67.7749 18.9257 67.7888 18.9639C67.8045 19.0038 67.8184 19.0437 67.8323 19.0888C67.8724 19.2188 67.8967 19.3333 67.902 19.4322C67.902 19.446 67.902 19.4617 67.902 19.4755C67.902 19.557 67.888 19.6282 67.8619 19.6906C67.8341 19.7513 67.8027 19.8016 67.7627 19.8432C67.7244 19.8831 67.6792 19.9161 67.627 19.9403C67.5765 19.9646 67.519 19.982 67.4546 19.9924C67.392 20.0028 67.3223 20.008 67.2492 20.008H67.0352V19.7444H67.0369ZM67.6931 20.4884L67.4738 20.7069L67.2527 20.4867L67.472 20.2681L67.6931 20.4884Z" fill="white"/>
</g>
<defs>
<clipPath id="clip0_354_3014">
<rect width="92" height="21" fill="white"/>
</clipPath>
</defs>
</svg>
