<svg width="28" height="28" viewBox="0 0 28 28" fill="none" xmlns="http://www.w3.org/2000/svg">
<path fill-rule="evenodd" clip-rule="evenodd" d="M25.2 0H2.8C1.2536 0 0 1.2536 0 2.8V25.2C0 26.7464 1.2536 28 2.8 28H25.2C26.7464 28 28 26.7464 28 25.2V2.8C28 1.2536 26.7464 0 25.2 0ZM5.6 6.38966C5.6 7.59849 6.58044 8.58059 7.79292 8.58059C9.00158 8.58059 9.98457 7.59849 9.98457 6.38966C9.98457 5.1821 9.00158 4.2 7.79292 4.2C6.58172 4.2 5.6 5.18082 5.6 6.38966ZM5.95061 22.4H9.71173V10.3091H5.95061V22.4ZM23.8 22.4H20.0414V16.5202C20.0414 15.1177 20.0159 13.314 18.0869 13.314C16.1299 13.314 15.829 14.8413 15.829 16.4183V22.4H12.0704V10.3091H15.6785V11.9612H15.7295C16.2319 11.011 17.4584 10.0085 19.2879 10.0085C23.0962 10.0085 23.8 12.5128 23.8 15.7686V22.4Z" fill="#222222"/>
</svg>
