<svg width="28" height="28" viewBox="0 0 28 28" fill="none" xmlns="http://www.w3.org/2000/svg">
<path fill-rule="evenodd" clip-rule="evenodd" d="M25.2 0H2.8C1.2536 0 0 1.2536 0 2.8V25.2C0 26.7464 1.2536 28 2.8 28H25.2C26.7464 28 28 26.7464 28 25.2V2.8C28 1.2536 26.7464 0 25.2 0ZM18.764 15.68H14V12.8H21.932C22.004 13.22 22.064 13.64 22.064 14.192C22.064 18.992 18.848 22.4 14 22.4C9.356 22.4 5.6 18.644 5.6 14C5.6 9.356 9.356 5.6 14 5.6C16.268 5.6 18.164 6.428 19.628 7.796L17.348 9.992C16.724 9.392 15.632 8.696 14 8.696C11.132 8.696 8.792 11.072 8.792 14C8.792 16.928 11.132 19.304 14 19.304C17.324 19.304 18.572 16.916 18.764 15.68Z" fill="#222222"/>
</svg>
